<?xml version="1.0"?>
<svg xmlns="http://www.w3.org/2000/svg" height="512px" viewBox="0 -78 512 512" width="512px">
    <path d="m489.761719 179.730469c-13.402344-17.777344-32.167969-31.246094-53.121094-38.199219-.617187-37.058594-12.199219-71.105469-32.769531-96.175781-24.34375-29.671875-59.574219-45.355469-101.882813-45.355469-31.640625 0-56.984375 7.816406-77.480469 23.890625-18.648437 14.628906-30.21875 33.898437-38.269531 50.023437-10.0625-4.863281-21.179687-7.414062-32.429687-7.414062-40.847656 0-74.167969 33.035156-74.945313 73.941406-46.609375 13.671875-78.863281 56.730469-78.863281 105.914063 0 60.839843 49.167969 110.332031 109.605469 110.332031h292.773437c60.445313 0 109.621094-49.492188 109.621094-110.332031 0-24.285157-7.691406-47.324219-22.238281-66.625zm-267.996094 33.871093h-39.269531l72.902344-71.832031 73.941406 71.832031h-39.109375c-9.109375 0-16.519531 7.410157-16.519531 16.519532v96.566406h-35.425782v-96.566406c.003906-9.109375-7.410156-16.519532-16.519531-16.519532zm180.613281 113.085938h-98.667968v-83.085938h42.246093c9.144531 0 16.984375-5.023437 20.964844-13.4375l.257813-.578124c3.527343-8.347657 2.28125-17.175782-3.417969-24.21875l-.5625-.699219-91.316407-88.707031c-4.53125-4.484376-10.285156-6.851563-16.648437-6.851563-6.222656 0-11.90625 2.386719-16.441406 6.90625l-90.003907 88.683594-.523437.648437c-5.714844 7.039063-6.976563 15.863282-3.457031 24.222656 3.699218 8.785157 11.636718 14.03125 21.230468 14.03125h42.25v83.085938h-98.683593c-43.894531 0-79.605469-36.035156-79.605469-80.332031 0-36.6875 24.570312-68.683594 59.753906-77.804688 11.613282-3.011719 19.476563-13.417969 19.117188-25.308593-.015625-.445313-.019532-.894532-.019532-1.34375 0-25.035157 20.167969-45.398438 44.957032-45.398438 7.679687 0 15.242187 1.980469 21.875 5.730469 6.136718 3.472656 13.503906 4.25 20.214844 2.144531 6.699218-2.101562 12.285156-6.9375 15.324218-13.269531 9.957032-20.722657 19.765625-34.171875 31.800782-43.609375 15.007812-11.773438 34.296874-17.496094 58.964843-17.496094 33.023438 0 60.234375 11.890625 78.691407 34.382812 16.757812 20.425782 25.988281 48.9375 25.988281 80.199219v.160157c-.011719 11.261718 7.480469 21.351562 18.210937 24.53125 33.632813 9.980468 57.121094 41.675781 57.121094 77.082031 0 44.296875-35.71875 80.332031-79.621094 80.332031zm0 0"

          fill="#333333"/></svg>
