<?xml version="1.0"?>
<svg xmlns="http://www.w3.org/2000/svg" height="512px"
     viewBox="0 -25 512.00101 512" width="512px">
    <path d="m451.21875 340.699219c-28.3125
    0-52.160156 19.457031-58.886719 45.699219h-11.855469c-6.5
     0-11.785156-5.285157-11.785156-11.785157v-73.203125h46.304688c53.488281 0 97.003906-43.515625 97.003906-97.003906s-43.515625-97.003906-97.003906-97.003906c-4.796875 0-9.570313.355468-14.289063 1.054687-18.472656-63.703125-77.007812-108.457031-144.707031-108.457031s-126.234375 44.753906-144.707031 108.457031c-4.71875-.703125-9.492188-1.054687-14.289063-1.054687-53.488281 0-97.003906 43.515625-97.003906 97 0 53.488281 43.515625 97.003906 97.003906 97.003906h46.304688v73.207031c0 6.496094-5.285156 11.785157-11.785156 11.785157h-11.855469c-6.726563-26.242188-30.574219-45.699219-58.886719-45.699219-33.515625 0-60.78125 27.269531-60.78125 60.785156s27.265625 60.78125 60.78125 60.78125c28.3125 0 52.160156-19.453125 58.886719-45.699219h11.855469c23.132812 0 41.953124-18.820312 41.953124-41.953125v-73.203125h67.4375v41.1875c-26.242187 6.726563-45.695312 30.578125-45.695312 58.886719 0 33.515625 27.265625 60.78125 60.78125 60.78125s60.78125-27.265625 60.78125-60.78125c0-28.308594-19.457031-52.160156-45.695312-58.886719v-41.1875h67.4375v73.203125c0 23.132813 18.820312 41.953125 41.953124 41.953125h11.855469c6.726563 26.246094 30.574219 45.699219 58.886719 45.699219 33.515625 0 60.78125-27.265625 60.78125-60.78125s-27.265625-60.785156-60.78125-60.785156zm-390.4375 91.398437c-16.878906 0-30.613281-13.734375-30.613281-30.613281 0-16.882813 13.734375-30.613281 30.613281-30.613281 16.882812 0 30.613281 13.730468 30.613281 30.613281 0 16.878906-13.730469 30.613281-30.613281 30.613281zm225.832031-30.613281c0 16.878906-13.734375 30.613281-30.613281 30.613281s-30.613281-13.734375-30.613281-30.613281c0-16.882813 13.734375-30.613281 30.613281-30.613281s30.613281 13.730468 30.613281 30.613281zm-256.445312-197.082031c0-36.851563 29.980469-66.832032 66.835937-66.832032 7.082032 0 14.089844 1.117188 20.824219 3.324219 4.148437 1.359375 8.679687.855469 12.429687-1.382812 3.746094-2.238281 6.339844-5.988281 7.113282-10.285157 10.3125-57.398437 60.203125-99.058593 118.628906-99.058593s108.316406 41.660156 118.628906 99.058593c.773438 4.296876 3.367188 8.046876 7.113282 10.285157 3.746093 2.238281 8.28125 2.742187 12.429687 1.382812 6.734375-2.207031 13.742187-3.324219 20.824219-3.324219 36.851562 0 66.835937 29.980469 66.835937 66.832032 0 36.855468-29.980469 66.835937-66.835937 66.835937h-317.992188c-36.855468 0-66.835937-29.980469-66.835937-66.835937zm421.050781 227.695312c-16.882812 0-30.613281-13.734375-30.613281-30.613281 0-16.882813 13.730469-30.617187 30.613281-30.617187 16.878906 0 30.613281 13.734374 30.613281 30.617187 0 16.878906-13.734375 30.613281-30.613281 30.613281zm0 0"
          fill="#333333"/></svg>
