<?xml version="1.0"?>
<svg xmlns="http://www.w3.org/2000/svg" height="512px"
     viewBox="-113 -21 682 682.66534" width="512px">
    <path d="m411.394531 289.515625-85.457031-123.355469v-49.734375l62.0625-86.601562c4.117188-5.742188 4.675781-13.304688 1.445312-19.589844-3.226562-6.285156-9.699218-10.234375-16.761718-10.234375h-70.167969c-5.9375 0-11.519531 2.792969-15.078125 7.539062l-10.941406 14.589844-13.886719-15.746094c-3.574219-4.058593-8.726563-6.382812-14.136719-6.382812h-144.253906c-6.488281 0-12.511719 3.335938-15.964844 8.828125-3.449218 5.488281-3.828125 12.367187-1.011718 18.210937l42.296874 87.636719v50.945313l-88.710937 115.46875c-28.746094 37.410156-44.800781 82.035156-46.441406 129.046875-1.644531 47.347656 11.503906 92.871093 38.039062 131.648437 41.664063 60.902344 108.332031 96.679688 182.917969 98.164063 1.699219.035156 3.402344.050781 5.113281.050781 21.875 0 43.585938-2.800781 64.523438-8.320312 41.855469-11.042969 79.269531-33.390626 108.199219-64.628907 34.113281-36.835937 54.644531-84.945312 57.824218-135.472656 3.148438-50.1875-10.914062-100.636719-39.609375-142.0625zm-244.160156-160.300781h121.007813v23.957031h-121.007813zm72.726563-91.519532 23.574218 26.738282c3.75 4.253906 9.226563 6.601562 14.882813 6.367187 5.664062-.226562 10.933593-2.988281 14.332031-7.523437l19.183594-25.582032h24.054687l-38.574219 53.828126h-137.199218l-25.976563-53.828126zm125.558593 503.738282c-24.058593 25.988281-55.230469 44.585937-90.152343 53.792968-17.800782 4.699219-36.277344 7.078126-54.917969 7.078126-1.457031 0-2.910157-.015626-4.359375-.046876-62.25-1.234374-117.855469-31.035156-152.558594-81.757812-44.828125-65.523438-41.941406-152.507812 7.183594-216.449219l86.957031-113.1875h139.527344l83.207031 120.117188c49.222656 71.058593 42.964844 167.980469-14.886719 230.453125zm0 0"
          fill="#333333"/>
    <path d="m276.945312 326.257812c10.40625 0 18.847657-8.4375 18.847657-18.839843 0-10.410157-8.441407-18.847657-18.847657-18.847657h-37.09375v-16.316406c0-10.410156-8.445312-18.847656-18.847656-18.847656-10.410156 0-18.847656 8.4375-18.847656 18.847656v17.351563c-29.675781 5.382812-52.253906 31.390625-52.253906 62.589843 0 31.203126 22.578125 57.214844 52.253906 62.59375v57.210938h-33.410156c-10.40625 0-18.84375 8.4375-18.84375 18.847656 0 10.40625 8.4375 18.847656 18.84375 18.847656h33.410156v11.222657c0 10.410156 8.4375 18.847656 18.847656 18.847656 10.402344 0 18.847656-8.4375 18.847656-18.847656v-11.707031c31.46875-3.808594 55.941407-30.667969 55.941407-63.148438v-4.296875c0-32.480469-24.472657-59.339844-55.941407-63.148437v-52.351563h37.09375zm-89.351562 25.9375c0-10.214843 5.953125-19.042968 14.5625-23.269531v46.542969c-8.609375-4.222656-14.5625-13.050781-14.5625-23.273438zm70.503906 89.570313v4.296875c0 11.628906-7.691406 21.492188-18.246094 24.773438v-53.84375c10.554688 3.285156 18.246094 13.148437 18.246094 24.773437zm0 0"
          fill="#333333"/></svg>
