<?xml version="1.0"?>
<svg xmlns="http://www.w3.org/2000/svg" height="512px" viewBox="0 0 512 512" width="512px">
    <path d="m195 60c0-33.085938-26.914062-60-60-60s-60 26.914062-60 60 26.914062 60 60 60 60-26.914062 60-60zm-60 30c-16.542969 0-30-13.457031-30-30s13.457031-30 30-30 30 13.457031 30 30-13.457031 30-30 30zm0 0"
          fill="#333333"/>
    <path d="m467 332h-31v-15c0-24.8125-20.1875-45-45-45s-45 20.1875-45 45v15h-31c-24.8125 0-45 20.1875-45 45v120c0 8.285156 6.714844 15 15 15h212c8.285156 0 15-6.714844 15-15v-120c0-24.8125-20.1875-45-45-45zm-91-15c0-8.269531 6.730469-15 15-15s15 6.730469 15 15v15h-30zm-76 60c0-8.269531 6.730469-15 15-15h152c8.269531 0 15 6.730469 15 15v30c0 8.269531-6.730469 15-15 15h-152c-8.269531 0-15-6.730469-15-15zm121 75v30h-60v-30zm-121-2.578125c4.695312 1.664063 9.742188 2.578125 15 2.578125h16v30h-31zm151 32.578125v-30h16c5.257812 0 10.304688-.914062 15-2.578125v32.578125zm0 0"
          fill="#333333"/>
    <path d="m45 332c5.257812 0 10.304688-.914062 15-2.578125v95.15625c-17.460938 6.195313-30 22.867187-30 42.421875v30c0 8.285156 6.714844 15 15 15h180c8.285156 0 15-6.714844 15-15v-30c0-19.554688-12.539062-36.226562-30-42.421875v-95.15625c4.695312 1.664063 9.742188 2.578125 15 2.578125 24.8125 0 45-20.1875 45-45v-92c0-41.355469-33.644531-75-75-75h-120c-41.355469 0-75 33.644531-75 75v92c0 24.8125 20.1875 45 45 45zm0-30c-8.269531 0-15-6.730469-15-15v-47h30v47c0 8.269531-6.730469 15-15 15zm135 120h-30v-75c0-8.285156-6.714844-15-15-15s-15 6.714844-15 15v75h-30v-120h90zm-120 60v-15c0-8.269531 6.730469-15 15-15h45v30c-18.226562 0-42.152344 0-60 0zm150 0h-60v-30h45c8.269531 0 15 6.730469 15 15zm15-180c-8.269531 0-15-6.730469-15-15v-47h30v47c0 8.269531-6.730469 15-15 15zm-150-152h120c24.8125 0 45 20.1875 45 45v15h-30v-15c0-8.285156-6.714844-15-15-15s-15 6.714844-15 15v77h-90v-77c0-8.285156-6.714844-15-15-15s-15 6.714844-15 15v15h-30v-15c0-24.8125 20.1875-45 45-45zm0 0"
          fill="#333333"/></svg>
