<?xml version="1.0"?>
<svg xmlns="http://www.w3.org/2000/svg" height="512px" viewBox="0 -68 512 511" width="512px">
    <path d="m496.671875 275.945312h-8.453125v-235.3125c0-22.128906-18.003906-40.132812-40.132812-40.132812h-384.171876c-22.128906 0-40.132812 18.003906-40.132812 40.132812v235.3125h-8.453125c-8.464844 0-15.328125 6.863282-15.328125 15.328126v23.050781c0 33.203125 27.011719 60.210937 60.210938 60.210937h391.578124c33.199219 0 60.210938-27.007812 60.210938-60.210937v-23.050781c0-8.464844-6.863281-15.328126-15.328125-15.328126zm-15.332031 30.65625v7.722657c0 16.296875-13.253906 29.554687-29.550782 29.554687h-391.578124c-16.296876 0-29.550782-13.257812-29.550782-29.554687v-7.722657zm-426.898438-265.96875c0-5.226562 4.25-9.472656 9.472656-9.472656h384.171876c5.222656 0 9.472656 4.246094 9.472656 9.472656v235.3125h-403.117188zm0 0"
          fill="#333333"/>
    <path d="m385.066406 94.945312h-53.144531c-8.464844 0-15.328125 6.863282-15.328125 15.332032 0 8.464844 6.863281 15.328125 15.328125 15.328125h16.136719l-79.292969 79.289062-64.652344-64.65625c-5.984375-5.984375-15.691406-5.984375-21.679687 0l-66.339844 66.34375c-5.984375 5.984375-5.984375 15.691407 0 21.675781 5.988281 5.988282 15.695312 5.988282 21.679688 0l55.503906-55.5 64.652344 64.652344c2.875 2.875 6.773437 4.492188 10.835937 4.492188 4.066406 0 7.96875-1.617188 10.839844-4.492188l90.128906-90.125v16.132813c0 8.464843 6.863281 15.328125 15.328125 15.328125 8.46875 0 15.332031-6.863282 15.332031-15.328125v-53.140625c0-8.46875-6.863281-15.332032-15.328125-15.332032zm0 0"
          fill="#333333"/>
</svg>
